# 3ds Max Wavefront OBJ Exporter v0.97b - (c)2007 guruware
# File Created: 03.04.2015 20:40:10

mtllib vect.mtl

#
# object Cone001
#

v  0.0000 30.0000 0.0000
v  1.7321 30.0000 -1.0000
v  1.9319 30.0000 -0.5176
v  2.0000 30.0000 0.0000
v  1.0000 30.0000 -1.7321
v  1.4142 30.0000 -1.4142
v  0.0000 30.0000 -2.0000
v  0.5176 30.0000 -1.9319
v  -1.0000 30.0000 -1.7321
v  -0.5176 30.0000 -1.9319
v  -1.7321 30.0000 -1.0000
v  -1.4142 30.0000 -1.4142
v  -2.0000 30.0000 -0.0000
v  -1.9319 30.0000 -0.5176
v  -1.7321 30.0000 1.0000
v  -1.9319 30.0000 0.5176
v  -1.0000 30.0000 1.7321
v  -1.4142 30.0000 1.4142
v  -0.0000 30.0000 2.0000
v  -0.5176 30.0000 1.9319
v  1.0000 30.0000 1.7321
v  0.5176 30.0000 1.9319
v  1.7321 30.0000 1.0000
v  1.4142 30.0000 1.4142
v  1.9319 30.0000 0.5176
v  1.5455 31.4813 -0.4141
v  1.6000 31.4813 0.0000
v  1.3856 31.4813 -0.8000
v  1.1314 31.4813 -1.1314
v  0.8000 31.4813 -1.3856
v  0.4141 31.4813 -1.5455
v  0.0000 31.4813 -1.6000
v  -0.4141 31.4813 -1.5455
v  -0.8000 31.4813 -1.3856
v  -1.1314 31.4813 -1.1314
v  -1.3856 31.4813 -0.8000
v  -1.5455 31.4813 -0.4141
v  -1.6000 31.4813 0.0000
v  -1.5455 31.4813 0.4141
v  -1.3856 31.4813 0.8000
v  -1.1314 31.4813 1.1314
v  -0.8000 31.4813 1.3856
v  -0.4141 31.4813 1.5455
v  -0.0000 31.4813 1.6000
v  0.4141 31.4813 1.5455
v  0.8000 31.4813 1.3856
v  1.1314 31.4813 1.1314
v  1.3856 31.4813 0.8000
v  1.5455 31.4813 0.4141
v  1.1591 32.9627 -0.3106
v  1.2000 32.9627 0.0000
v  1.0392 32.9627 -0.6000
v  0.8485 32.9627 -0.8485
v  0.6000 32.9627 -1.0392
v  0.3106 32.9627 -1.1591
v  0.0000 32.9627 -1.2000
v  -0.3106 32.9627 -1.1591
v  -0.6000 32.9627 -1.0392
v  -0.8485 32.9627 -0.8485
v  -1.0392 32.9627 -0.6000
v  -1.1591 32.9627 -0.3106
v  -1.2000 32.9627 0.0000
v  -1.1591 32.9627 0.3106
v  -1.0392 32.9627 0.6000
v  -0.8485 32.9627 0.8485
v  -0.6000 32.9627 1.0392
v  -0.3106 32.9627 1.1591
v  -0.0000 32.9627 1.2000
v  0.3106 32.9627 1.1591
v  0.6000 32.9627 1.0392
v  0.8485 32.9627 0.8485
v  1.0392 32.9627 0.6000
v  1.1591 32.9627 0.3106
v  0.7727 34.4440 -0.2071
v  0.8000 34.4440 0.0000
v  0.6928 34.4440 -0.4000
v  0.5657 34.4440 -0.5657
v  0.4000 34.4440 -0.6928
v  0.2071 34.4440 -0.7727
v  0.0000 34.4440 -0.8000
v  -0.2071 34.4440 -0.7727
v  -0.4000 34.4440 -0.6928
v  -0.5657 34.4440 -0.5657
v  -0.6928 34.4440 -0.4000
v  -0.7727 34.4440 -0.2071
v  -0.8000 34.4440 0.0000
v  -0.7727 34.4440 0.2071
v  -0.6928 34.4440 0.4000
v  -0.5657 34.4440 0.5657
v  -0.4000 34.4440 0.6928
v  -0.2071 34.4440 0.7727
v  -0.0000 34.4440 0.8000
v  0.2071 34.4440 0.7727
v  0.4000 34.4440 0.6928
v  0.5657 34.4440 0.5657
v  0.6928 34.4440 0.4000
v  0.7727 34.4440 0.2071
v  0.3864 35.9254 -0.1035
v  0.4000 35.9254 0.0000
v  0.3464 35.9254 -0.2000
v  0.2828 35.9254 -0.2828
v  0.2000 35.9254 -0.3464
v  0.1035 35.9254 -0.3864
v  0.0000 35.9254 -0.4000
v  -0.1035 35.9254 -0.3864
v  -0.2000 35.9254 -0.3464
v  -0.2828 35.9254 -0.2828
v  -0.3464 35.9254 -0.2000
v  -0.3864 35.9254 -0.1035
v  -0.4000 35.9254 0.0000
v  -0.3864 35.9254 0.1035
v  -0.3464 35.9254 0.2000
v  -0.2828 35.9254 0.2828
v  -0.2000 35.9254 0.3464
v  -0.1035 35.9254 0.3864
v  -0.0000 35.9254 0.4000
v  0.1035 35.9254 0.3864
v  0.2000 35.9254 0.3464
v  0.2828 35.9254 0.2828
v  0.3464 35.9254 0.2000
v  0.3864 35.9254 0.1035
v  0.0000 37.4067 0.0000
# 122 vertices

vn 0.0000 -1.0000 -0.0000
vn 0.9654 0.2607 0.0000
vn 0.9325 0.2607 -0.2499
vn 0.8361 0.2607 -0.4827
vn 0.6827 0.2607 -0.6827
vn 0.4827 0.2607 -0.8361
vn 0.2499 0.2607 -0.9325
vn 0.0000 0.2607 -0.9654
vn -0.2499 0.2607 -0.9325
vn -0.4827 0.2607 -0.8361
vn -0.6827 0.2607 -0.6827
vn -0.8361 0.2607 -0.4827
vn -0.9325 0.2607 -0.2499
vn -0.9654 0.2607 -0.0000
vn -0.9325 0.2607 0.2499
vn -0.8361 0.2607 0.4827
vn -0.6827 0.2607 0.6827
vn -0.4827 0.2607 0.8361
vn -0.2499 0.2607 0.9325
vn -0.0000 0.2607 0.9654
vn 0.2499 0.2607 0.9325
vn 0.4827 0.2607 0.8361
vn 0.6827 0.2607 0.6827
vn 0.8361 0.2607 0.4827
vn 0.9325 0.2607 0.2499
vn 0.9577 0.2586 -0.1261
vn 0.9577 0.2586 0.1261
vn 0.8925 0.2586 -0.3697
vn 0.7664 0.2586 -0.5881
vn 0.5881 0.2586 -0.7664
vn 0.3697 0.2586 -0.8925
vn 0.1261 0.2586 -0.9577
vn -0.1261 0.2586 -0.9577
vn -0.3697 0.2586 -0.8925
vn -0.5881 0.2586 -0.7664
vn -0.7664 0.2586 -0.5881
vn -0.8925 0.2586 -0.3697
vn -0.9577 0.2586 -0.1261
vn -0.9577 0.2586 0.1261
vn -0.8925 0.2586 0.3697
vn -0.7664 0.2586 0.5881
vn -0.5881 0.2586 0.7664
vn -0.3697 0.2586 0.8925
vn -0.1261 0.2586 0.9577
vn 0.1261 0.2586 0.9577
vn 0.3697 0.2586 0.8925
vn 0.5881 0.2586 0.7664
vn 0.7664 0.2586 0.5881
vn 0.8925 0.2586 0.3697
vn 1.0000 0.0000 -0.0000
# 50 vertex normals

vt 0.5000 0.0000 0.0000
vt 0.8333 0.0000 1.0000
vt 0.7917 0.0000 1.0000
vt 0.7500 0.0000 1.0000
vt 0.9167 0.0000 1.0000
vt 0.8750 0.0000 1.0000
vt 1.0000 0.0000 1.0000
vt 0.9583 0.0000 1.0000
vt 0.0833 0.0000 1.0000
vt 0.0417 0.0000 1.0000
vt -0.0000 0.0000 1.0000
vt 0.1667 0.0000 1.0000
vt 0.1250 0.0000 1.0000
vt 0.2500 0.0000 1.0000
vt 0.2083 0.0000 1.0000
vt 0.3333 0.0000 1.0000
vt 0.2917 0.0000 1.0000
vt 0.4167 0.0000 1.0000
vt 0.3750 0.0000 1.0000
vt 0.5000 0.0000 1.0000
vt 0.4583 0.0000 1.0000
vt 0.5833 0.0000 1.0000
vt 0.5417 0.0000 1.0000
vt 0.6667 0.0000 1.0000
vt 0.6250 0.0000 1.0000
vt 0.7083 0.0000 1.0000
vt 0.7917 0.2000 0.8000
vt 0.7500 0.2000 0.8000
vt 0.8333 0.2000 0.8000
vt 0.8750 0.2000 0.8000
vt 0.9167 0.2000 0.8000
vt 0.9583 0.2000 0.8000
vt 1.0000 0.2000 0.8000
vt 0.0417 0.2000 0.8000
vt -0.0000 0.2000 0.8000
vt 0.0833 0.2000 0.8000
vt 0.1250 0.2000 0.8000
vt 0.1667 0.2000 0.8000
vt 0.2083 0.2000 0.8000
vt 0.2500 0.2000 0.8000
vt 0.2917 0.2000 0.8000
vt 0.3333 0.2000 0.8000
vt 0.3750 0.2000 0.8000
vt 0.4167 0.2000 0.8000
vt 0.4583 0.2000 0.8000
vt 0.5000 0.2000 0.8000
vt 0.5417 0.2000 0.8000
vt 0.5833 0.2000 0.8000
vt 0.6250 0.2000 0.8000
vt 0.6667 0.2000 0.8000
vt 0.7083 0.2000 0.8000
vt 0.7917 0.4000 0.6000
vt 0.7500 0.4000 0.6000
vt 0.8333 0.4000 0.6000
vt 0.8750 0.4000 0.6000
vt 0.9167 0.4000 0.6000
vt 0.9583 0.4000 0.6000
vt 1.0000 0.4000 0.6000
vt 0.0417 0.4000 0.6000
vt -0.0000 0.4000 0.6000
vt 0.0833 0.4000 0.6000
vt 0.1250 0.4000 0.6000
vt 0.1667 0.4000 0.6000
vt 0.2083 0.4000 0.6000
vt 0.2500 0.4000 0.6000
vt 0.2917 0.4000 0.6000
vt 0.3333 0.4000 0.6000
vt 0.3750 0.4000 0.6000
vt 0.4167 0.4000 0.6000
vt 0.4583 0.4000 0.6000
vt 0.5000 0.4000 0.6000
vt 0.5417 0.4000 0.6000
vt 0.5833 0.4000 0.6000
vt 0.6250 0.4000 0.6000
vt 0.6667 0.4000 0.6000
vt 0.7083 0.4000 0.6000
vt 0.7917 0.6000 0.4000
vt 0.7500 0.6000 0.4000
vt 0.8333 0.6000 0.4000
vt 0.8750 0.6000 0.4000
vt 0.9167 0.6000 0.4000
vt 0.9583 0.6000 0.4000
vt 1.0000 0.6000 0.4000
vt 0.0417 0.6000 0.4000
vt -0.0000 0.6000 0.4000
vt 0.0833 0.6000 0.4000
vt 0.1250 0.6000 0.4000
vt 0.1667 0.6000 0.4000
vt 0.2083 0.6000 0.4000
vt 0.2500 0.6000 0.4000
vt 0.2917 0.6000 0.4000
vt 0.3333 0.6000 0.4000
vt 0.3750 0.6000 0.4000
vt 0.4167 0.6000 0.4000
vt 0.4583 0.6000 0.4000
vt 0.5000 0.6000 0.4000
vt 0.5417 0.6000 0.4000
vt 0.5833 0.6000 0.4000
vt 0.6250 0.6000 0.4000
vt 0.6667 0.6000 0.4000
vt 0.7083 0.6000 0.4000
vt 0.7917 0.8000 0.2000
vt 0.7500 0.8000 0.2000
vt 0.8333 0.8000 0.2000
vt 0.8750 0.8000 0.2000
vt 0.9167 0.8000 0.2000
vt 0.9583 0.8000 0.2000
vt 1.0000 0.8000 0.2000
vt 0.0417 0.8000 0.2000
vt -0.0000 0.8000 0.2000
vt 0.0833 0.8000 0.2000
vt 0.1250 0.8000 0.2000
vt 0.1667 0.8000 0.2000
vt 0.2083 0.8000 0.2000
vt 0.2500 0.8000 0.2000
vt 0.2917 0.8000 0.2000
vt 0.3333 0.8000 0.2000
vt 0.3750 0.8000 0.2000
vt 0.4167 0.8000 0.2000
vt 0.4583 0.8000 0.2000
vt 0.5000 0.8000 0.2000
vt 0.5417 0.8000 0.2000
vt 0.5833 0.8000 0.2000
vt 0.6250 0.8000 0.2000
vt 0.6667 0.8000 0.2000
vt 0.7083 0.8000 0.2000
vt 0.5000 1.0000 0.0000
# 127 texture coords

g Cone001
usemtl wire_255255255
s 1
f 1/1/1 2/2/1 3/3/1 4/4/1 
f 1/1/1 5/5/1 6/6/1 2/2/1 
f 1/1/1 7/7/1 8/8/1 5/5/1 
f 1/1/1 9/9/1 10/10/1 7/11/1 
f 1/1/1 11/12/1 12/13/1 9/9/1 
f 1/1/1 13/14/1 14/15/1 11/12/1 
f 1/1/1 15/16/1 16/17/1 13/14/1 
f 1/1/1 17/18/1 18/19/1 15/16/1 
f 1/1/1 19/20/1 20/21/1 17/18/1 
f 1/1/1 21/22/1 22/23/1 19/20/1 
f 1/1/1 23/24/1 24/25/1 21/22/1 
f 1/1/1 4/4/1 25/26/1 23/24/1 
s 8
f 4/4/2 3/3/3 26/27/3 27/28/2 
f 3/3/3 2/2/4 28/29/4 26/27/3 
f 2/2/4 6/6/5 29/30/5 28/29/4 
f 6/6/5 5/5/6 30/31/6 29/30/5 
f 5/5/6 8/8/7 31/32/7 30/31/6 
f 8/8/7 7/7/8 32/33/8 31/32/7 
f 7/11/8 10/10/9 33/34/9 32/35/8 
f 10/10/9 9/9/10 34/36/10 33/34/9 
f 9/9/10 12/13/11 35/37/11 34/36/10 
f 12/13/11 11/12/12 36/38/12 35/37/11 
f 11/12/12 14/15/13 37/39/13 36/38/12 
f 14/15/13 13/14/14 38/40/14 37/39/13 
f 13/14/14 16/17/15 39/41/15 38/40/14 
f 16/17/15 15/16/16 40/42/16 39/41/15 
f 15/16/16 18/19/17 41/43/17 40/42/16 
f 18/19/17 17/18/18 42/44/18 41/43/17 
f 17/18/18 20/21/19 43/45/19 42/44/18 
f 20/21/19 19/20/20 44/46/20 43/45/19 
f 19/20/20 22/23/21 45/47/21 44/46/20 
f 22/23/21 21/22/22 46/48/22 45/47/21 
f 21/22/22 24/25/23 47/49/23 46/48/22 
f 24/25/23 23/24/24 48/50/24 47/49/23 
f 23/24/24 25/26/25 49/51/25 48/50/24 
f 25/26/25 4/4/2 27/28/2 49/51/25 
f 27/28/2 26/27/3 50/52/3 51/53/2 
f 26/27/3 28/29/4 52/54/4 50/52/3 
f 28/29/4 29/30/5 53/55/5 52/54/4 
f 29/30/5 30/31/6 54/56/6 53/55/5 
f 30/31/6 31/32/7 55/57/7 54/56/6 
f 31/32/7 32/33/8 56/58/8 55/57/7 
f 32/35/8 33/34/9 57/59/9 56/60/8 
f 33/34/9 34/36/10 58/61/10 57/59/9 
f 34/36/10 35/37/11 59/62/11 58/61/10 
f 35/37/11 36/38/12 60/63/12 59/62/11 
f 36/38/12 37/39/13 61/64/13 60/63/12 
f 37/39/13 38/40/14 62/65/14 61/64/13 
f 38/40/14 39/41/15 63/66/15 62/65/14 
f 39/41/15 40/42/16 64/67/16 63/66/15 
f 40/42/16 41/43/17 65/68/17 64/67/16 
f 41/43/17 42/44/18 66/69/18 65/68/17 
f 42/44/18 43/45/19 67/70/19 66/69/18 
f 43/45/19 44/46/20 68/71/20 67/70/19 
f 44/46/20 45/47/21 69/72/21 68/71/20 
f 45/47/21 46/48/22 70/73/22 69/72/21 
f 46/48/22 47/49/23 71/74/23 70/73/22 
f 47/49/23 48/50/24 72/75/24 71/74/23 
f 48/50/24 49/51/25 73/76/25 72/75/24 
f 49/51/25 27/28/2 51/53/2 73/76/25 
f 51/53/2 50/52/3 74/77/3 75/78/2 
f 50/52/3 52/54/4 76/79/4 74/77/3 
f 52/54/4 53/55/5 77/80/5 76/79/4 
f 53/55/5 54/56/6 78/81/6 77/80/5 
f 54/56/6 55/57/7 79/82/7 78/81/6 
f 55/57/7 56/58/8 80/83/8 79/82/7 
f 56/60/8 57/59/9 81/84/9 80/85/8 
f 57/59/9 58/61/10 82/86/10 81/84/9 
f 58/61/10 59/62/11 83/87/11 82/86/10 
f 59/62/11 60/63/12 84/88/12 83/87/11 
f 60/63/12 61/64/13 85/89/13 84/88/12 
f 61/64/13 62/65/14 86/90/14 85/89/13 
f 62/65/14 63/66/15 87/91/15 86/90/14 
f 63/66/15 64/67/16 88/92/16 87/91/15 
f 64/67/16 65/68/17 89/93/17 88/92/16 
f 65/68/17 66/69/18 90/94/18 89/93/17 
f 66/69/18 67/70/19 91/95/19 90/94/18 
f 67/70/19 68/71/20 92/96/20 91/95/19 
f 68/71/20 69/72/21 93/97/21 92/96/20 
f 69/72/21 70/73/22 94/98/22 93/97/21 
f 70/73/22 71/74/23 95/99/23 94/98/22 
f 71/74/23 72/75/24 96/100/24 95/99/23 
f 72/75/24 73/76/25 97/101/25 96/100/24 
f 73/76/25 51/53/2 75/78/2 97/101/25 
f 75/78/2 74/77/3 98/102/3 99/103/2 
f 74/77/3 76/79/4 100/104/4 98/102/3 
f 76/79/4 77/80/5 101/105/5 100/104/4 
f 77/80/5 78/81/6 102/106/6 101/105/5 
f 78/81/6 79/82/7 103/107/7 102/106/6 
f 79/82/7 80/83/8 104/108/8 103/107/7 
f 80/85/8 81/84/9 105/109/9 104/110/8 
f 81/84/9 82/86/10 106/111/10 105/109/9 
f 82/86/10 83/87/11 107/112/11 106/111/10 
f 83/87/11 84/88/12 108/113/12 107/112/11 
f 84/88/12 85/89/13 109/114/13 108/113/12 
f 85/89/13 86/90/14 110/115/14 109/114/13 
f 86/90/14 87/91/15 111/116/15 110/115/14 
f 87/91/15 88/92/16 112/117/16 111/116/15 
f 88/92/16 89/93/17 113/118/17 112/117/16 
f 89/93/17 90/94/18 114/119/18 113/118/17 
f 90/94/18 91/95/19 115/120/19 114/119/18 
f 91/95/19 92/96/20 116/121/20 115/120/19 
f 92/96/20 93/97/21 117/122/21 116/121/20 
f 93/97/21 94/98/22 118/123/22 117/122/21 
f 94/98/22 95/99/23 119/124/23 118/123/22 
f 95/99/23 96/100/24 120/125/24 119/124/23 
f 96/100/24 97/101/25 121/126/25 120/125/24 
f 97/101/25 75/78/2 99/103/2 121/126/25 
f 99/103/2 98/102/3 122/127/26 122/127/27 
f 98/102/3 100/104/4 122/127/28 122/127/26 
f 100/104/4 101/105/5 122/127/29 122/127/28 
f 101/105/5 102/106/6 122/127/30 122/127/29 
f 102/106/6 103/107/7 122/127/31 122/127/30 
f 103/107/7 104/108/8 122/127/32 122/127/31 
f 104/110/8 105/109/9 122/127/33 122/127/32 
f 105/109/9 106/111/10 122/127/34 122/127/33 
f 106/111/10 107/112/11 122/127/35 122/127/34 
f 107/112/11 108/113/12 122/127/36 122/127/35 
f 108/113/12 109/114/13 122/127/37 122/127/36 
f 109/114/13 110/115/14 122/127/38 122/127/37 
f 110/115/14 111/116/15 122/127/39 122/127/38 
f 111/116/15 112/117/16 122/127/40 122/127/39 
f 112/117/16 113/118/17 122/127/41 122/127/40 
f 113/118/17 114/119/18 122/127/42 122/127/41 
f 114/119/18 115/120/19 122/127/43 122/127/42 
f 115/120/19 116/121/20 122/127/44 122/127/43 
f 116/121/20 117/122/21 122/127/45 122/127/44 
f 117/122/21 118/123/22 122/127/46 122/127/45 
f 118/123/22 119/124/23 122/127/47 122/127/46 
f 119/124/23 120/125/24 122/127/48 122/127/47 
f 120/125/24 121/126/25 122/127/49 122/127/48 
f 121/126/25 99/103/2 122/127/27 122/127/49 
s 1
f 122/127/50 122/127/50 122/127/50 122/127/50 
f 122/127/50 122/127/50 122/127/50 122/127/50 
f 122/127/50 122/127/50 122/127/50 122/127/50 
f 122/127/50 122/127/50 122/127/50 122/127/50 
f 122/127/50 122/127/50 122/127/50 122/127/50 
f 122/127/50 122/127/50 122/127/50 122/127/50 
f 122/127/50 122/127/50 122/127/50 122/127/50 
f 122/127/50 122/127/50 122/127/50 122/127/50 
f 122/127/50 122/127/50 122/127/50 122/127/50 
f 122/127/50 122/127/50 122/127/50 122/127/50 
f 122/127/50 122/127/50 122/127/50 122/127/50 
f 122/127/50 122/127/50 122/127/50 122/127/50 
# 144 polygons

#
# object Cylinder001
#

v  0.0000 0.0000 -0.0000
v  0.1915 0.0000 -0.1607
v  0.2349 0.0000 -0.0855
v  0.2500 0.0000 -0.0000
v  0.0434 0.0000 -0.2462
v  0.1250 0.0000 -0.2165
v  -0.1250 0.0000 -0.2165
v  -0.0434 0.0000 -0.2462
v  -0.2349 0.0000 -0.0855
v  -0.1915 0.0000 -0.1607
v  -0.2349 0.0000 0.0855
v  -0.2500 0.0000 -0.0000
v  -0.1250 0.0000 0.2165
v  -0.1915 0.0000 0.1607
v  0.0434 0.0000 0.2462
v  -0.0434 0.0000 0.2462
v  0.1915 0.0000 0.1607
v  0.1250 0.0000 0.2165
v  0.2349 0.0000 0.0855
v  0.2349 6.0000 -0.0855
v  0.2500 6.0000 -0.0000
v  0.1915 6.0000 -0.1607
v  0.1250 6.0000 -0.2165
v  0.0434 6.0000 -0.2462
v  -0.0434 6.0000 -0.2462
v  -0.1250 6.0000 -0.2165
v  -0.1915 6.0000 -0.1607
v  -0.2349 6.0000 -0.0855
v  -0.2500 6.0000 -0.0000
v  -0.2349 6.0000 0.0855
v  -0.1915 6.0000 0.1607
v  -0.1250 6.0000 0.2165
v  -0.0434 6.0000 0.2462
v  0.0434 6.0000 0.2462
v  0.1250 6.0000 0.2165
v  0.1915 6.0000 0.1607
v  0.2349 6.0000 0.0855
v  0.2349 12.0000 -0.0855
v  0.2500 12.0000 -0.0000
v  0.1915 12.0000 -0.1607
v  0.1250 12.0000 -0.2165
v  0.0434 12.0000 -0.2462
v  -0.0434 12.0000 -0.2462
v  -0.1250 12.0000 -0.2165
v  -0.1915 12.0000 -0.1607
v  -0.2349 12.0000 -0.0855
v  -0.2500 12.0000 -0.0000
v  -0.2349 12.0000 0.0855
v  -0.1915 12.0000 0.1607
v  -0.1250 12.0000 0.2165
v  -0.0434 12.0000 0.2462
v  0.0434 12.0000 0.2462
v  0.1250 12.0000 0.2165
v  0.1915 12.0000 0.1607
v  0.2349 12.0000 0.0855
v  0.2349 18.0000 -0.0855
v  0.2500 18.0000 -0.0000
v  0.1915 18.0000 -0.1607
v  0.1250 18.0000 -0.2165
v  0.0434 18.0000 -0.2462
v  -0.0434 18.0000 -0.2462
v  -0.1250 18.0000 -0.2165
v  -0.1915 18.0000 -0.1607
v  -0.2349 18.0000 -0.0855
v  -0.2500 18.0000 -0.0000
v  -0.2349 18.0000 0.0855
v  -0.1915 18.0000 0.1607
v  -0.1250 18.0000 0.2165
v  -0.0434 18.0000 0.2462
v  0.0434 18.0000 0.2462
v  0.1250 18.0000 0.2165
v  0.1915 18.0000 0.1607
v  0.2349 18.0000 0.0855
v  0.2349 24.0000 -0.0855
v  0.2500 24.0000 -0.0000
v  0.1915 24.0000 -0.1607
v  0.1250 24.0000 -0.2165
v  0.0434 24.0000 -0.2462
v  -0.0434 24.0000 -0.2462
v  -0.1250 24.0000 -0.2165
v  -0.1915 24.0000 -0.1607
v  -0.2349 24.0000 -0.0855
v  -0.2500 24.0000 -0.0000
v  -0.2349 24.0000 0.0855
v  -0.1915 24.0000 0.1607
v  -0.1250 24.0000 0.2165
v  -0.0434 24.0000 0.2462
v  0.0434 24.0000 0.2462
v  0.1250 24.0000 0.2165
v  0.1915 24.0000 0.1607
v  0.2349 24.0000 0.0855
v  0.2349 30.0000 -0.0855
v  0.2500 30.0000 -0.0000
v  0.1915 30.0000 -0.1607
v  0.1250 30.0000 -0.2165
v  0.0434 30.0000 -0.2462
v  -0.0434 30.0000 -0.2462
v  -0.1250 30.0000 -0.2165
v  -0.1915 30.0000 -0.1607
v  -0.2349 30.0000 -0.0855
v  -0.2500 30.0000 -0.0000
v  -0.2349 30.0000 0.0855
v  -0.1915 30.0000 0.1607
v  -0.1250 30.0000 0.2165
v  -0.0434 30.0000 0.2462
v  0.0434 30.0000 0.2462
v  0.1250 30.0000 0.2165
v  0.1915 30.0000 0.1607
v  0.2349 30.0000 0.0855
v  0.0000 30.0000 -0.0000
# 110 vertices

vn 0.0000 -1.0000 -0.0000
vn 1.0000 0.0000 0.0000
vn 0.9397 0.0000 -0.3420
vn 0.7660 0.0000 -0.6428
vn 0.5000 0.0000 -0.8660
vn 0.1736 0.0000 -0.9848
vn -0.1736 0.0000 -0.9848
vn -0.5000 0.0000 -0.8660
vn -0.7660 0.0000 -0.6428
vn -0.9397 0.0000 -0.3420
vn -1.0000 0.0000 -0.0000
vn -0.9397 0.0000 0.3420
vn -0.7660 0.0000 0.6428
vn -0.5000 0.0000 0.8660
vn -0.1736 0.0000 0.9848
vn 0.1736 0.0000 0.9848
vn 0.5000 0.0000 0.8660
vn 0.7660 0.0000 0.6428
vn 0.9397 0.0000 0.3420
vn 0.0000 1.0000 -0.0000
# 20 vertex normals

vt 0.5000 0.0000 0.0000
vt 0.8611 0.0000 1.0000
vt 0.8056 0.0000 1.0000
vt 0.7500 0.0000 1.0000
vt 0.9722 0.0000 1.0000
vt 0.9167 0.0000 1.0000
vt 0.0833 0.0000 1.0000
vt 0.0278 0.0000 1.0000
vt -0.0278 0.0000 1.0000
vt 0.1944 0.0000 1.0000
vt 0.1389 0.0000 1.0000
vt 0.3056 0.0000 1.0000
vt 0.2500 0.0000 1.0000
vt 0.4167 0.0000 1.0000
vt 0.3611 0.0000 1.0000
vt 0.5278 0.0000 1.0000
vt 0.4722 0.0000 1.0000
vt 0.6389 0.0000 1.0000
vt 0.5833 0.0000 1.0000
vt 0.6944 0.0000 1.0000
vt 0.8056 0.2000 1.0000
vt 0.7500 0.2000 1.0000
vt 0.8611 0.2000 1.0000
vt 0.9167 0.2000 1.0000
vt 0.9722 0.2000 1.0000
vt 0.0278 0.2000 1.0000
vt -0.0278 0.2000 1.0000
vt 0.0833 0.2000 1.0000
vt 0.1389 0.2000 1.0000
vt 0.1944 0.2000 1.0000
vt 0.2500 0.2000 1.0000
vt 0.3056 0.2000 1.0000
vt 0.3611 0.2000 1.0000
vt 0.4167 0.2000 1.0000
vt 0.4722 0.2000 1.0000
vt 0.5278 0.2000 1.0000
vt 0.5833 0.2000 1.0000
vt 0.6389 0.2000 1.0000
vt 0.6944 0.2000 1.0000
vt 0.8056 0.4000 1.0000
vt 0.7500 0.4000 1.0000
vt 0.8611 0.4000 1.0000
vt 0.9167 0.4000 1.0000
vt 0.9722 0.4000 1.0000
vt 0.0278 0.4000 1.0000
vt -0.0278 0.4000 1.0000
vt 0.0833 0.4000 1.0000
vt 0.1389 0.4000 1.0000
vt 0.1944 0.4000 1.0000
vt 0.2500 0.4000 1.0000
vt 0.3056 0.4000 1.0000
vt 0.3611 0.4000 1.0000
vt 0.4167 0.4000 1.0000
vt 0.4722 0.4000 1.0000
vt 0.5278 0.4000 1.0000
vt 0.5833 0.4000 1.0000
vt 0.6389 0.4000 1.0000
vt 0.6944 0.4000 1.0000
vt 0.8056 0.6000 1.0000
vt 0.7500 0.6000 1.0000
vt 0.8611 0.6000 1.0000
vt 0.9167 0.6000 1.0000
vt 0.9722 0.6000 1.0000
vt 0.0278 0.6000 1.0000
vt -0.0278 0.6000 1.0000
vt 0.0833 0.6000 1.0000
vt 0.1389 0.6000 1.0000
vt 0.1944 0.6000 1.0000
vt 0.2500 0.6000 1.0000
vt 0.3056 0.6000 1.0000
vt 0.3611 0.6000 1.0000
vt 0.4167 0.6000 1.0000
vt 0.4722 0.6000 1.0000
vt 0.5278 0.6000 1.0000
vt 0.5833 0.6000 1.0000
vt 0.6389 0.6000 1.0000
vt 0.6944 0.6000 1.0000
vt 0.8056 0.8000 1.0000
vt 0.7500 0.8000 1.0000
vt 0.8611 0.8000 1.0000
vt 0.9167 0.8000 1.0000
vt 0.9722 0.8000 1.0000
vt 0.0278 0.8000 1.0000
vt -0.0278 0.8000 1.0000
vt 0.0833 0.8000 1.0000
vt 0.1389 0.8000 1.0000
vt 0.1944 0.8000 1.0000
vt 0.2500 0.8000 1.0000
vt 0.3056 0.8000 1.0000
vt 0.3611 0.8000 1.0000
vt 0.4167 0.8000 1.0000
vt 0.4722 0.8000 1.0000
vt 0.5278 0.8000 1.0000
vt 0.5833 0.8000 1.0000
vt 0.6389 0.8000 1.0000
vt 0.6944 0.8000 1.0000
vt 0.8056 1.0000 1.0000
vt 0.7500 1.0000 1.0000
vt 0.8611 1.0000 1.0000
vt 0.9167 1.0000 1.0000
vt 0.9722 1.0000 1.0000
vt 0.0278 1.0000 1.0000
vt -0.0278 1.0000 1.0000
vt 0.0833 1.0000 1.0000
vt 0.1389 1.0000 1.0000
vt 0.1944 1.0000 1.0000
vt 0.2500 1.0000 1.0000
vt 0.3056 1.0000 1.0000
vt 0.3611 1.0000 1.0000
vt 0.4167 1.0000 1.0000
vt 0.4722 1.0000 1.0000
vt 0.5278 1.0000 1.0000
vt 0.5833 1.0000 1.0000
vt 0.6389 1.0000 1.0000
vt 0.6944 1.0000 1.0000
vt 0.5000 1.0000 0.0000
vt -0.0197 1.0000 0.8794
# 117 texture coords

g Cylinder001
usemtl wire_255255255
s 1
f 123/128/51 124/129/51 125/130/51 126/131/51 
f 123/128/51 127/132/51 128/133/51 124/129/51 
f 123/128/51 129/134/51 130/135/51 127/136/51 
f 123/128/51 131/137/51 132/138/51 129/134/51 
f 123/128/51 133/139/51 134/140/51 131/137/51 
f 123/128/51 135/141/51 136/142/51 133/139/51 
f 123/128/51 137/143/51 138/144/51 135/141/51 
f 123/128/51 139/145/51 140/146/51 137/143/51 
f 123/128/51 126/131/51 141/147/51 139/145/51 
s 8
f 126/131/52 125/130/53 142/148/53 143/149/52 
f 125/130/53 124/129/54 144/150/54 142/148/53 
f 124/129/54 128/133/55 145/151/55 144/150/54 
f 128/133/55 127/132/56 146/152/56 145/151/55 
f 127/136/56 130/135/57 147/153/57 146/154/56 
f 130/135/57 129/134/58 148/155/58 147/153/57 
f 129/134/58 132/138/59 149/156/59 148/155/58 
f 132/138/59 131/137/60 150/157/60 149/156/59 
f 131/137/60 134/140/61 151/158/61 150/157/60 
f 134/140/61 133/139/62 152/159/62 151/158/61 
f 133/139/62 136/142/63 153/160/63 152/159/62 
f 136/142/63 135/141/64 154/161/64 153/160/63 
f 135/141/64 138/144/65 155/162/65 154/161/64 
f 138/144/65 137/143/66 156/163/66 155/162/65 
f 137/143/66 140/146/67 157/164/67 156/163/66 
f 140/146/67 139/145/68 158/165/68 157/164/67 
f 139/145/68 141/147/69 159/166/69 158/165/68 
f 141/147/69 126/131/52 143/149/52 159/166/69 
f 143/149/52 142/148/53 160/167/53 161/168/52 
f 142/148/53 144/150/54 162/169/54 160/167/53 
f 144/150/54 145/151/55 163/170/55 162/169/54 
f 145/151/55 146/152/56 164/171/56 163/170/55 
f 146/154/56 147/153/57 165/172/57 164/173/56 
f 147/153/57 148/155/58 166/174/58 165/172/57 
f 148/155/58 149/156/59 167/175/59 166/174/58 
f 149/156/59 150/157/60 168/176/60 167/175/59 
f 150/157/60 151/158/61 169/177/61 168/176/60 
f 151/158/61 152/159/62 170/178/62 169/177/61 
f 152/159/62 153/160/63 171/179/63 170/178/62 
f 153/160/63 154/161/64 172/180/64 171/179/63 
f 154/161/64 155/162/65 173/181/65 172/180/64 
f 155/162/65 156/163/66 174/182/66 173/181/65 
f 156/163/66 157/164/67 175/183/67 174/182/66 
f 157/164/67 158/165/68 176/184/68 175/183/67 
f 158/165/68 159/166/69 177/185/69 176/184/68 
f 159/166/69 143/149/52 161/168/52 177/185/69 
f 161/168/52 160/167/53 178/186/53 179/187/52 
f 160/167/53 162/169/54 180/188/54 178/186/53 
f 162/169/54 163/170/55 181/189/55 180/188/54 
f 163/170/55 164/171/56 182/190/56 181/189/55 
f 164/173/56 165/172/57 183/191/57 182/192/56 
f 165/172/57 166/174/58 184/193/58 183/191/57 
f 166/174/58 167/175/59 185/194/59 184/193/58 
f 167/175/59 168/176/60 186/195/60 185/194/59 
f 168/176/60 169/177/61 187/196/61 186/195/60 
f 169/177/61 170/178/62 188/197/62 187/196/61 
f 170/178/62 171/179/63 189/198/63 188/197/62 
f 171/179/63 172/180/64 190/199/64 189/198/63 
f 172/180/64 173/181/65 191/200/65 190/199/64 
f 173/181/65 174/182/66 192/201/66 191/200/65 
f 174/182/66 175/183/67 193/202/67 192/201/66 
f 175/183/67 176/184/68 194/203/68 193/202/67 
f 176/184/68 177/185/69 195/204/69 194/203/68 
f 177/185/69 161/168/52 179/187/52 195/204/69 
f 179/187/52 178/186/53 196/205/53 197/206/52 
f 178/186/53 180/188/54 198/207/54 196/205/53 
f 180/188/54 181/189/55 199/208/55 198/207/54 
f 181/189/55 182/190/56 200/209/56 199/208/55 
f 182/192/56 183/191/57 201/210/57 200/211/56 
f 183/191/57 184/193/58 202/212/58 201/210/57 
f 184/193/58 185/194/59 203/213/59 202/212/58 
f 185/194/59 186/195/60 204/214/60 203/213/59 
f 186/195/60 187/196/61 205/215/61 204/214/60 
f 187/196/61 188/197/62 206/216/62 205/215/61 
f 188/197/62 189/198/63 207/217/63 206/216/62 
f 189/198/63 190/199/64 208/218/64 207/217/63 
f 190/199/64 191/200/65 209/219/65 208/218/64 
f 191/200/65 192/201/66 210/220/66 209/219/65 
f 192/201/66 193/202/67 211/221/67 210/220/66 
f 193/202/67 194/203/68 212/222/68 211/221/67 
f 194/203/68 195/204/69 213/223/69 212/222/68 
f 195/204/69 179/187/52 197/206/52 213/223/69 
f 197/206/52 196/205/53 214/224/53 215/225/52 
f 196/205/53 198/207/54 216/226/54 214/224/53 
f 198/207/54 199/208/55 217/227/55 216/226/54 
f 199/208/55 200/209/56 218/228/56 217/227/55 
f 200/211/56 201/210/57 219/229/57 218/230/56 
f 201/210/57 202/212/58 220/231/58 219/229/57 
f 202/212/58 203/213/59 221/232/59 220/231/58 
f 203/213/59 204/214/60 222/233/60 221/232/59 
f 204/214/60 205/215/61 223/234/61 222/233/60 
f 205/215/61 206/216/62 224/235/62 223/234/61 
f 206/216/62 207/217/63 225/236/63 224/235/62 
f 207/217/63 208/218/64 226/237/64 225/236/63 
f 208/218/64 209/219/65 227/238/65 226/237/64 
f 209/219/65 210/220/66 228/239/66 227/238/65 
f 210/220/66 211/221/67 229/240/67 228/239/66 
f 211/221/67 212/222/68 230/241/68 229/240/67 
f 212/222/68 213/223/69 231/242/69 230/241/68 
f 213/223/69 197/206/52 215/225/52 231/242/69 
s 1
f 232/243/70 231/242/70 215/225/70 214/224/70 
f 232/243/70 214/224/70 216/226/70 217/227/70 
f 232/243/70 217/244/70 218/230/70 219/229/70 
f 232/243/70 219/229/70 220/231/70 221/232/70 
f 232/243/70 221/232/70 222/233/70 223/234/70 
f 232/243/70 223/234/70 224/235/70 225/236/70 
f 232/243/70 225/236/70 226/237/70 227/238/70 
f 232/243/70 227/238/70 228/239/70 229/240/70 
f 232/243/70 229/240/70 230/241/70 231/242/70 
# 108 polygons

